<?xml version="1.0" encoding="UTF-8" standalone="no"?>
<!-- Generator: Adobe Illustrator 16.0.4, SVG Export Plug-In . SVG Version: 6.00 Build 0)  -->

<svg
   version="1.1"
   id="Layer_1"
   x="0px"
   y="0px"
   width="273.79977"
   height="276.82358"
   viewBox="0 0 273.79977 276.82357"
   enable-background="new 0 0 306 344.35"
   xml:space="preserve"
   sodipodi:docname="python.svg"
   inkscape:version="1.3 (0e150ed6c4, 2023-07-21)"
   xmlns:inkscape="http://www.inkscape.org/namespaces/inkscape"
   xmlns:sodipodi="http://sodipodi.sourceforge.net/DTD/sodipodi-0.dtd"
   xmlns:xlink="http://www.w3.org/1999/xlink"
   xmlns="http://www.w3.org/2000/svg"
   xmlns:svg="http://www.w3.org/2000/svg"><defs
   id="defs6"><linearGradient
     inkscape:collect="always"
     xlink:href="#linearGradient4689"
     id="linearGradient1478"
     gradientUnits="userSpaceOnUse"
     gradientTransform="matrix(1.3855858,0,0,1.3989628,-36.924387,-28.823937)"
     x1="26.648937"
     y1="20.603781"
     x2="135.66525"
     y2="114.39767" /><linearGradient
     id="linearGradient4689"><stop
       style="stop-color:#5a9fd4;stop-opacity:1;"
       offset="0"
       id="stop4691" /><stop
       style="stop-color:#306998;stop-opacity:1;"
       offset="1"
       id="stop4693" /></linearGradient><linearGradient
     inkscape:collect="always"
     xlink:href="#linearGradient4671"
     id="linearGradient1475"
     gradientUnits="userSpaceOnUse"
     gradientTransform="matrix(1.3855858,0,0,1.3989628,-36.924387,-28.823937)"
     x1="150.96111"
     y1="192.35176"
     x2="112.03144"
     y2="137.27299" /><linearGradient
     id="linearGradient4671"><stop
       style="stop-color:#ffd43b;stop-opacity:1;"
       offset="0"
       id="stop4673" /><stop
       style="stop-color:#ffe873;stop-opacity:1"
       offset="1"
       id="stop4675" /></linearGradient></defs><sodipodi:namedview
   id="namedview6"
   pagecolor="#ffffff"
   bordercolor="#000000"
   borderopacity="0.25"
   inkscape:showpageshadow="2"
   inkscape:pageopacity="0.0"
   inkscape:pagecheckerboard="0"
   inkscape:deskcolor="#d1d1d1"
   inkscape:zoom="3.5167707"
   inkscape:cx="139.47455"
   inkscape:cy="151.70167"
   inkscape:window-width="2552"
   inkscape:window-height="1415"
   inkscape:window-x="1924"
   inkscape:window-y="21"
   inkscape:window-maximized="1"
   inkscape:current-layer="Layer_1" />&#10;&#10;&#10;&#10;&#10;&#10;&#10;<path
   style="fill:url(#linearGradient1478);fill-opacity:1;stroke-width:2.46309"
   d="M 135.26958,0.00226477 C 123.97965,0.05488477 113.19803,1.0175808 103.71133,2.6962528 75.764632,7.6334918 70.6906,17.967615 70.6906,37.025483 V 62.19513 h 66.04143 v 8.38988 H 70.6906 45.90583 c -19.193486,0 -35.9998473,11.53639 -41.2566593,33.48257 -6.06368,25.15539 -6.33265,40.85276 0,67.11902 4.694462,19.55159 15.9054493,33.48255 35.0989363,33.48255 h 22.706569 v -30.17278 c 0,-21.79805 18.86019,-41.02575 41.256654,-41.02575 h 65.96447 c 18.36218,0 33.02075,-15.11881 33.0207,-33.55952 V 37.025483 C 202.6965,19.127861 187.59789,5.6832988 169.6758,2.6962528 158.33086,0.80775677 146.55951,-0.05020123 135.26958,0.00226477 Z M 99.554853,20.245721 c 6.821647,0 12.392407,5.661765 12.392407,12.623321 0,6.936862 -5.57076,12.546322 -12.392407,12.546322 -6.84605,0 -12.39236,-5.60946 -12.39236,-12.546322 0,-6.961556 5.54631,-12.623321 12.39236,-12.623321 z"
   id="path1948"
   inkscape:connector-curvature="0" /><path
   style="fill:url(#linearGradient1475);fill-opacity:1;stroke-width:2.46309"
   d="M 210.93247,70.58501 V 99.9111 c 0,22.73612 -19.27583,41.87245 -41.25667,41.87245 h -65.96447 c -18.06878,0 -33.02073,15.46442 -33.02073,33.55953 v 62.8856 c 0,17.89763 15.563205,28.42478 33.02073,33.55953 20.905,6.14692 40.95182,7.25781 65.96447,0 16.62621,-4.81385 33.02075,-14.5017 33.02075,-33.55953 v -25.16964 h -65.96452 v -8.38989 h 65.96452 33.02068 c 19.19353,0 26.3458,-13.38784 33.02075,-33.48255 6.89496,-20.68716 6.60157,-40.58121 0,-67.11902 C 263.99461,84.96032 254.93513,70.58501 235.71723,70.58501 Z M 173.83225,229.8388 c 6.8461,0 12.3924,5.60947 12.3924,12.54632 0,6.96156 -5.5463,12.62332 -12.3924,12.62332 -6.82165,0 -12.39237,-5.66176 -12.39237,-12.62332 0,-6.93685 5.57072,-12.54632 12.39237,-12.54632 z"
   id="path1950"
   inkscape:connector-curvature="0" /></svg>
